<svg width="12" height="18" viewBox="0 0 12 18" fill="none" xmlns="http://www.w3.org/2000/svg">
<g style="mix-blend-mode:luminosity">
<path d="M7.35921 0.316978C8.24134 0.00110602 9.73402 1.00072 10.0422 1.23763C10.3504 1.47453 7.64619 7.99998 7.83687 8.70491C8.02755 9.40984 10.4235 9.39636 11.0803 10.1629C11.7371 10.9276 7.17238 17.5455 6.60805 17.7766C6.04372 18.0077 4.69741 17.9827 4.69741 17.9827L6.60805 12.3914L4.29102 5.0435L7.35921 0.316978Z" fill="url(#paint0_linear_201_8052)"/>
<path d="M0.661923 1.0835C-0.123904 1.31462 -0.121978 9.24416 0.213154 10.1263C0.548286 11.0084 2.88265 10.5019 3.68581 11.0103C4.48898 11.5188 4.51979 17.557 4.69699 17.9788C4.87419 18.4006 9.81257 11.8039 10.2902 10.7118C10.7679 9.61973 7.15848 9.39054 6.68082 9.04C6.20316 8.69138 8.27558 1.03342 7.69199 0.449827C7.10647 -0.131839 1.65191 0.790736 0.661923 1.0835Z" fill="url(#paint1_linear_201_8052)"/>
<path d="M7.83718 10.5848C7.77939 10.9334 6.5525 13.8205 5.91498 14.955C5.74356 15.2574 5.61837 15.4345 5.56444 15.4076C5.31213 15.2785 5.576 10.4345 5.21583 10.2516C4.85373 10.0686 1.95118 10.0339 1.76435 9.65063C1.57753 9.26735 1.41959 3.19645 1.87221 2.88828C2.60218 2.39329 5.96699 1.92333 6.01128 2.59552C6.01514 2.64753 6.00936 2.72842 6.00165 2.83435C5.88802 4.13443 4.93655 9.18838 5.18501 9.42336C5.44888 9.67952 7.91037 10.1437 7.83718 10.5848Z" fill="#479DFF"/>
<path d="M7.83698 10.5847C7.77919 10.9333 6.5523 13.8205 5.91478 14.9549C5.70677 14.7623 6.06501 10.5963 5.75492 10.3652C5.44483 10.134 2.58272 9.81817 2.32848 9.38481C2.07424 8.95145 2.01454 3.54696 2.40553 3.19257C2.79651 2.83818 5.92056 2.44526 5.9976 2.83433C5.88396 4.13441 4.9325 9.18835 5.18096 9.42333C5.44868 9.67949 7.91016 10.1437 7.83698 10.5847Z" fill="#47FFFF"/>
<path d="M5.18913 3.31983C5.14676 3.09255 4.14521 3.51821 3.50191 3.61451C2.85861 3.71081 3.68296 4.6045 3.75808 4.87992C3.83319 5.15535 4.3513 4.45812 4.41101 4.73355C4.47072 5.00897 4.24537 6.18386 4.08165 6.09141C3.91794 6.00088 3.24575 6.34179 3.17256 6.99087C3.10129 7.63995 2.71223 9.15189 3.3305 8.92462C3.94876 8.69735 4.24344 8.48356 4.32819 8.94773C4.41101 9.41191 3.91601 9.4774 4.41679 9.54288C4.91756 9.60837 6.23305 10.3229 6.44106 10.712C6.64907 11.1011 6.52195 11.1184 6.33898 11.3457C6.156 11.5729 5.5493 13.2467 6.14637 12.9058C6.74345 12.5648 6.47188 13.004 6.34476 13.4258C6.21764 13.8476 5.83435 13.8977 5.93836 14.1076C6.04429 14.3195 6.06933 14.6758 6.06933 14.6758C6.06933 14.6758 6.41987 12.9867 6.62211 12.7594C6.82242 12.5321 6.21957 12.7266 6.40639 12.1585C6.59129 11.5903 6.90716 11.0375 6.94568 10.8102C6.9842 10.5829 6.62018 10.3229 6.14445 10.0783C5.66872 9.83372 4.4996 9.94735 4.59591 9.15189C4.69221 8.35644 4.99075 7.78825 4.36093 8.12916C3.73304 8.47007 3.33049 8.86106 3.27849 8.37377C3.22649 7.88648 3.51732 6.52091 3.708 6.31097C3.89868 6.09911 4.39945 6.71737 4.51694 6.83101C4.63443 6.94465 4.85978 6.60373 5.03119 5.6619C5.20261 4.72006 5.32395 4.18269 4.97341 4.23277C4.62287 4.28092 3.77156 4.68732 4.05276 4.11914C4.33397 3.55095 4.98304 3.66459 5.27773 3.84371C5.57049 4.01898 5.18913 3.31983 5.18913 3.31983Z" fill="white"/>
<path d="M0.511719 1.23762C0.511719 1.23762 4.54679 0.288078 6.80989 0.397862C9.07299 0.507647 10.0418 1.23762 10.0418 1.23762C10.0418 1.23762 8.87076 0.270745 7.5206 0.0319148C6.17044 -0.204989 0.82759 0.952564 0.74477 1.01805C0.66195 1.08354 0.511719 1.23762 0.511719 1.23762Z" fill="#7C5CF4"/>
<path opacity="0.5" d="M1.75681 3.131C1.65858 3.76659 1.88393 3.35827 3.08771 2.89987C4.29148 2.44147 6.01337 2.68415 5.99796 2.83439C5.98255 2.98654 6.00567 2.3028 5.84195 2.26235C5.67824 2.2219 1.86082 2.43184 1.75681 3.131Z" fill="#9ABAFF"/>
<path d="M6.67966 9.04376C6.61225 8.82804 8.32451 9.1574 9.71126 9.52142C11.098 9.88545 11.1308 10.2668 11.1308 10.2668C11.1308 10.2668 10.5876 10.4093 10.1677 10.2668C9.74786 10.1223 9.62074 9.88544 6.67966 9.04376Z" fill="#7C5CF4"/>
<path d="M1.76172 9.65259C1.76172 9.65259 1.85802 9.83941 2.38383 9.93186C3.73014 10.1668 4.93777 10.398 5.12074 10.4172C5.30372 10.4365 5.57722 10.3306 5.57722 10.3306C5.57722 10.3306 5.15734 10.1052 4.36381 10.0975C3.57028 10.0859 2.05255 9.87601 1.76172 9.65259Z" fill="#9ACCFF"/>
<path d="M1.57626 6.74791C1.57626 6.74791 1.33936 3.33303 1.62634 2.8573C1.91524 2.38349 4.76387 2.2583 4.76387 2.2583C4.76387 2.2583 2.26386 2.5318 1.86902 2.89004C1.47418 3.24829 1.57626 6.74791 1.57626 6.74791Z" fill="#9A90FF"/>
</g>
<defs>
<linearGradient id="paint0_linear_201_8052" x1="7.71791" y1="17.9819" x2="7.71791" y2="0.255325" gradientUnits="userSpaceOnUse">
<stop stop-color="#3D069A"/>
<stop offset="1" stop-color="#6509BA"/>
</linearGradient>
<linearGradient id="paint1_linear_201_8052" x1="5.16641" y1="18.0005" x2="5.16641" y2="0.262518" gradientUnits="userSpaceOnUse">
<stop stop-color="#512EFF"/>
<stop offset="1" stop-color="#7C1ACC"/>
</linearGradient>
</defs>
</svg>
