<svg width="31" height="20" viewBox="0 0 31 20" fill="none" xmlns="http://www.w3.org/2000/svg">
<path d="M4.25391 18.8804C4.25391 18.8804 0.43241 9.50653 2.14979 5.16576C3.86717 0.824986 13.947 1.09003 16.0727 5.16576C18.2012 9.24149 15.1694 19.1428 15.1694 19.1428L4.25391 18.8804Z" fill="url(#paint0_radial_484_13885)"/>
<path d="M4.25414 19.1455H21.2954L24.3786 2.10429C24.3786 2.10429 16.3461 0.219231 5.99586 2.34499C5.99586 2.34499 1.97963 3.32403 1.70647 7.20504C1.43061 11.086 4.25414 19.1455 4.25414 19.1455Z" fill="url(#paint1_linear_484_13885)"/>
<path d="M18.2116 19.1455C18.2116 19.1455 16.1102 9.50652 17.5409 5.16845C18.9716 0.827672 27.3718 1.09272 29.1433 5.16845C30.9148 9.24418 27.3069 18.8831 27.3069 18.8831L18.2116 19.1455Z" fill="url(#paint2_linear_484_13885)"/>
<path opacity="0.3" d="M25.6442 3.52422C25.2683 2.99954 21.5523 3.55668 21.0276 4.0516C20.5029 4.54383 20.6003 16.7521 20.8626 17.1253C21.1249 17.4985 24.6219 17.366 24.8085 17.3606C24.9924 17.3552 25.6442 3.52422 25.6442 3.52422Z" fill="#D42F55"/>
<path opacity="0.3" d="M27.2316 3.97306C26.6475 3.91897 25.1681 17.4849 25.3331 17.5065C25.498 17.5282 26.6556 17.2361 27.5075 15.1157C28.3594 12.9927 28.7868 7.84866 28.6542 6.72357C28.5217 5.59578 27.2316 3.97306 27.2316 3.97306Z" fill="#D42F55"/>
<path d="M27.5564 19.1536C27.5131 19.2916 27.4725 19.4079 27.4401 19.5025C27.4374 19.5052 27.4401 19.5052 27.4401 19.5052C27.3806 19.6729 27.3454 19.7703 27.3373 19.7919C27.3346 19.7946 27.3346 19.7973 27.3346 19.7973L26.0851 19.7622C26.0851 19.7622 26.0851 19.7595 26.0878 19.754C26.0986 19.7297 26.1311 19.6432 26.1906 19.4998C26.3177 19.1726 26.553 18.5532 26.8315 17.7446C27.8241 14.894 29.3873 9.69319 28.8086 6.68034C28.0919 2.94268 23.6808 1.07114 20.484 2.14213C20.457 2.15025 20.4353 2.16107 20.4137 2.16918C19.6943 2.41529 19.0452 2.82097 18.5124 3.38081C18.5043 3.38892 18.4962 3.39703 18.4854 3.40785C21.2007 0.376072 28.914 0.0028491 29.6307 5.79325C30.2338 10.6344 28.246 17.1144 27.5564 19.1536Z" fill="url(#paint3_linear_484_13885)"/>
<path d="M20.0371 2.60742L20.3157 17.6284C20.3157 17.6284 20.6781 4.55198 20.0371 2.60742Z" fill="#8D001A"/>
<path d="M25.9362 2.79932L24.9707 17.704C24.9707 17.704 26.2121 7.30507 25.9362 2.79932Z" fill="#8D001A"/>
<path d="M17.0432 19.8325H14.9255C14.9255 19.8325 13.1811 11.151 13.9005 6.35041C14.7389 0.754731 19.8911 -0.608351 24.3806 0.224645C24.3806 0.224645 19.4502 -0.078263 17.6274 3.27536C15.7964 6.63168 17.0432 19.8325 17.0432 19.8325Z" fill="url(#paint4_linear_484_13885)"/>
<path d="M30.1745 12.8495C29.566 16.5736 28.6194 19.7947 28.6194 19.7947H27.3375C27.3375 19.7947 27.3375 19.792 27.3402 19.7893C27.3483 19.7677 27.3807 19.6703 27.443 19.5027C27.443 19.5027 27.4402 19.5027 27.443 19.5C27.4754 19.4053 27.5133 19.289 27.5592 19.1538V19.1511C28.2327 17.1227 30.1853 10.7265 29.6363 6.11793C29.1711 2.23152 24.0082 0.795406 20.4869 2.13956C20.4598 2.14767 20.4382 2.15849 20.4166 2.16661C19.6918 2.45058 19.0427 2.85356 18.5153 3.37824C18.5072 3.38635 18.4991 3.39447 18.4882 3.40529C17.9609 3.94078 17.5633 4.60339 17.3577 5.39311C16.3571 9.22814 17.3794 14.767 18.0447 17.6284C18.2557 18.529 18.4287 19.4323 18.4937 19.6595L18.5234 19.7569L17.0386 19.8353C17.0386 19.8353 14.5423 11.3972 16.3408 5.05235C18.5883 -2.87734 30.161 -0.372952 30.637 6.2207C30.7885 8.22205 30.5396 10.6237 30.1745 12.8495Z" fill="url(#paint5_linear_484_13885)"/>
<path d="M16.9492 9.68774C16.9492 9.68774 24.0973 9.91763 29.3116 9.90411C29.3116 9.90411 29.125 11.5133 29.052 11.9163C28.979 12.3193 17.0439 11.9163 17.0439 11.9163L16.9492 9.68774Z" fill="url(#paint6_linear_484_13885)"/>
<path d="M16.9492 9.68779C16.9492 9.68779 25.1034 10.0691 29.3116 9.90416C29.3089 9.90416 23.3373 9.34161 16.9492 9.68779Z" fill="url(#paint7_linear_484_13885)"/>
<path d="M4.05907 19.7973C4.05907 19.7973 -0.181632 12.0299 0.840681 6.08803C1.6872 1.16578 7.73183 1.24422 7.73183 1.24422C7.73183 1.24422 4.4323 1.89601 3.02865 5.24963C1.625 8.60325 5.69261 19.7973 5.69261 19.7973H4.05907Z" fill="url(#paint8_linear_484_13885)"/>
<path d="M8.2187 18.8806C8.2187 18.8806 5.0544 11.462 5.72783 6.56414C6.40125 1.66623 11.1369 1.56616 11.1369 1.56616C11.1369 1.56616 7.04223 2.27745 6.05507 5.97725C4.84615 10.5019 8.2187 18.8806 8.2187 18.8806Z" fill="#9F001A"/>
<path d="M12.7242 18.8806C12.7242 18.8806 10.044 9.98535 11.0798 5.23349C12.0345 0.860261 15.7965 1.33626 15.7965 1.33626C15.7965 1.33626 12.2779 0.927879 11.2097 5.72842C10.0792 10.8129 12.7242 18.8806 12.7242 18.8806Z" fill="#9F001A"/>
<path d="M11.8537 1.50649C11.8537 1.50649 9.80369 0.870926 6.70971 1.3334C3.61572 1.79588 2.18503 5.34422 2.57989 9.78506C2.97475 14.2259 5.6874 19.7972 5.6874 19.7972H6.86928L8.1999 18.8804L6.57178 18.8588C6.57178 18.8588 2.93418 12.0136 3.81045 6.43144C4.54338 1.79857 11.8537 1.50649 11.8537 1.50649Z" fill="url(#paint9_linear_484_13885)"/>
<path d="M3.31766 11.6405C3.31766 11.6405 2.87952 10.2801 2.95255 9.68785C3.02557 9.09556 13.7247 9.04688 13.7247 9.04688L13.8248 11.6405C13.8248 11.6405 6.41976 12.2599 3.31766 11.6405Z" fill="url(#paint10_linear_484_13885)"/>
<path d="M7.68811 11.4133L7.77465 10.8724C7.77465 10.8724 7.37438 10.4045 7.5015 10.1043C7.62861 9.80407 8.05863 9.78243 8.19115 9.93659C8.32367 10.0907 8.09649 10.8345 8.09649 10.8345L8.38588 11.4268L7.68811 11.4133Z" fill="#9F001A"/>
<path opacity="0.5" d="M2.54492 7.4999C2.7126 8.05974 3.72139 9.39578 3.72139 9.39578C3.72139 9.39578 3.69164 6.13952 5.0953 4.38698C6.50165 2.63715 10.8397 1.56887 10.8397 1.56887C10.8397 1.56887 8.2001 0.56548 5.73627 1.75006C3.27244 2.93195 2.54492 7.4999 2.54492 7.4999Z" fill="#BE2F55"/>
<path opacity="0.5" d="M16.9629 8.25712C17.0494 8.67632 18.1123 3.80276 23.4916 3.76489C28.8709 3.72703 28.5951 7.88931 29.3118 8.05969C30.0258 8.23278 30.2178 3.45657 26.5478 2.30715C22.8777 1.15772 19.9216 1.96097 18.4531 3.44576C16.9818 4.93055 16.9629 8.25712 16.9629 8.25712Z" fill="#BE2F55"/>
<path opacity="0.5" d="M17.3333 13.9041C17.3441 12.4653 25.6957 12.5302 26.7478 12.4004C27.7999 12.2679 27.9324 14.5884 28.4246 13.9041C28.9168 13.2226 29.0521 11.9136 29.0521 11.9136C29.0521 11.9136 24.1433 11.965 17.0439 11.9136L17.3333 13.9041Z" fill="#BE2F55"/>
<path opacity="0.5" d="M18.5252 19.7567C18.5252 19.7567 17.4461 19.8162 17.0405 19.47C16.6348 19.1238 15.3853 11.9595 15.7639 8.43012C16.1426 4.90341 17.9384 1.94194 19.0499 1.42538C20.1615 0.908813 18.0952 2.46391 17.2108 5.28204C16.3292 8.10016 16.6862 15.2293 18.5252 19.7567Z" fill="#FF6D55"/>
<path d="M27.3749 19.4972C27.356 19.6541 27.3397 19.7623 27.3397 19.792C27.337 19.7947 27.337 19.7974 27.337 19.7974L26.0902 19.7542L18.6771 19.765L18.5257 19.7596L18.4959 19.6622L17.9658 17.6311C17.9658 17.6311 17.9956 17.6311 18.047 17.6311C18.815 17.6392 24.8489 17.6879 26.8313 17.7447C27.2072 17.7555 27.4371 17.769 27.4614 17.7799C27.5723 17.8312 27.4452 18.9482 27.3749 19.4972Z" fill="url(#paint11_linear_484_13885)"/>
<path d="M4.87012 17.942C5.14598 17.823 14.6227 17.942 14.6227 17.942L14.9256 19.8325L5.6923 19.7974L4.87012 17.942Z" fill="url(#paint12_linear_484_13885)"/>
<path d="M4.87012 17.9419L5.90054 17.4308C5.90054 17.4308 10.3252 18.1231 14.4766 17.0684L14.6227 17.9419H4.87012Z" fill="url(#paint13_linear_484_13885)"/>
<path d="M2.95312 9.68777L3.72392 9.39568C3.72392 9.39568 10.5069 8.82502 13.7253 9.04679C13.7253 9.04679 7.73744 9.66343 2.95312 9.68777Z" fill="url(#paint14_linear_484_13885)"/>
<path opacity="0.5" d="M3.31836 11.6404C3.31836 11.6404 4.26765 13.7553 4.64088 14.0312C5.0141 14.307 4.62465 12.6627 8.86265 12.4004C13.1007 12.138 14.0094 13.6553 14.0094 13.6553L13.8255 11.6404C13.8255 11.6404 7.01275 11.8973 3.31836 11.6404Z" fill="#BE2F55"/>
<path opacity="0.2" d="M0.718964 7.39439C0.691919 7.5188 0.756828 9.62021 0.881236 9.83928C1.00564 10.0583 2.16589 10.1936 2.38496 10.107C2.60673 10.0232 2.43364 7.59182 2.38496 7.39439C2.33627 7.19696 0.718964 7.39439 0.718964 7.39439Z" fill="#E02774"/>
<path opacity="0.2" d="M14.2929 6.28819C13.9143 6.24492 14.0684 8.46534 14.0089 8.71957C13.9494 8.97109 15.18 8.9224 15.3044 8.84938C15.4288 8.77636 15.7858 6.87778 15.6938 6.5316C15.6019 6.18542 14.2929 6.28819 14.2929 6.28819Z" fill="#E02774"/>
<path opacity="0.2" d="M13.5546 9.34172C13.5005 9.06857 9.46264 9.63382 9.06778 9.76093C8.67292 9.88534 8.38624 11.5324 8.6648 11.6406C8.94337 11.7488 13.6357 11.4999 13.725 11.4215C13.8115 11.3431 13.5546 9.34172 13.5546 9.34172Z" fill="#E02774"/>
<path opacity="0.5" d="M17.0566 10.1071C17.1811 9.67439 24.4779 10.0774 25.2406 10.4127C26.0059 10.7481 25.4867 11.6325 25.2406 11.7839C24.9945 11.9354 17.2487 11.8813 17.1513 11.7839C17.0539 11.6866 17.0566 10.1071 17.0566 10.1071Z" fill="#FF6D55"/>
<path opacity="0.5" d="M3.57812 18.8428C3.57812 18.8428 4.13796 19.765 8.84385 19.6244C13.5497 19.481 17.0413 19.4702 17.0413 19.4702L18.6343 19.7596L17.0413 19.8326L4.05683 19.7975L3.57812 18.8428Z" fill="#BE2F55"/>
<path opacity="0.5" d="M27.9291 14.5208C27.9291 14.5208 26.7716 16.9386 26.2523 17.2334C25.7357 17.5282 19.0555 17.2334 18.4497 17.2334C17.8439 17.2334 17.6465 15.7351 17.6465 15.7351L17.9683 17.6283L27.0907 17.7229L27.9291 14.5208Z" fill="#BE2F55"/>
<path d="M5.91487 6.63969C5.84455 7.26985 10.399 6.33408 10.6208 5.91488C10.8425 5.49568 12.5437 2.2908 13.1603 1.76072C13.7769 1.23063 10.0149 1.68229 8.99262 2.37194C7.96761 3.0616 6.16909 4.37871 5.91487 6.63969Z" fill="#FF9CA1"/>
<path d="M11.3831 5.71761C11.3587 6.28556 12.9869 5.96372 13.306 5.81497C13.6251 5.66622 15.3019 2.38021 16.1404 1.75817C16.9788 1.13613 13.5954 1.65269 12.8219 2.50192C12.0484 3.35655 11.3831 5.71761 11.3831 5.71761Z" fill="#FF9CA1"/>
<path d="M5.72764 6.56415C5.09748 6.87518 4.2726 6.68585 4.16712 6.28829C4.06165 5.89072 5.36523 3.75685 6.79323 3.09154C8.21851 2.42893 6.00891 3.51074 5.72764 6.56415Z" fill="#FF9CA1"/>
<path opacity="0.5" d="M30.1737 12.8521C29.5652 16.5735 28.6186 19.7973 28.6186 19.7973H27.3367L26.0872 19.7621C26.0872 19.7621 26.0872 19.7594 26.0899 19.754L18.6768 19.7648L27.3772 19.4998C27.3772 19.4998 27.4016 19.5025 27.4394 19.5079C27.6558 19.5322 28.3698 19.6107 28.5185 19.5728C28.6943 19.5241 30.1359 13.0143 30.1737 12.8521Z" fill="#BE2F55"/>
<path opacity="0.5" d="M4.87037 17.9422C4.87037 17.9422 3.74258 14.667 3.83994 14.3235C3.93731 13.9773 5.59248 16.8576 6.33082 17.2092C7.06916 17.5608 9.38964 17.6284 9.38964 17.6284C9.38964 17.6284 6.33623 17.5797 5.9035 17.431C5.46537 17.2822 4.87037 17.9422 4.87037 17.9422Z" fill="#BE2F55"/>
<path opacity="0.3" d="M8.08025 17.374C7.67727 17.4308 6.86862 13.3929 7.18505 12.9737C7.50148 12.5545 10.2736 12.8871 10.8416 13.1901C11.4095 13.493 11.9775 17.1684 11.8531 17.374C11.7287 17.5795 8.47511 17.3172 8.08025 17.374Z" fill="#D42F55"/>
<path opacity="0.3" d="M12.0234 12.9739C11.6286 12.9198 12.394 16.9334 12.6157 17.0713C12.8375 17.2092 14.1249 17.0767 14.2438 16.717C14.3628 16.3573 14.0275 14.0936 13.8246 13.6852C13.6191 13.2741 12.0234 12.9739 12.0234 12.9739Z" fill="#D42F55"/>
<path opacity="0.2" d="M3.56646 11.562C3.45016 11.1022 4.83218 10.6425 5.8031 10.7723C6.77403 10.9048 7.26896 11.6648 7.26896 11.6648L3.56646 11.562Z" fill="#E02774"/>
<defs>
<radialGradient id="paint0_radial_484_13885" cx="0" cy="0" r="1" gradientUnits="userSpaceOnUse" gradientTransform="translate(6.51455 7.25793) scale(11.9235 11.9235)">
<stop stop-color="#CE5411"/>
<stop offset="1" stop-color="#B42B00"/>
</radialGradient>
<linearGradient id="paint1_linear_484_13885" x1="13.0315" y1="19.1458" x2="13.0315" y2="1.33436" gradientUnits="userSpaceOnUse">
<stop stop-color="#B42B00"/>
<stop offset="1" stop-color="#CE5411"/>
</linearGradient>
<linearGradient id="paint2_linear_484_13885" x1="23.3376" y1="19.1457" x2="23.3376" y2="2.01061" gradientUnits="userSpaceOnUse">
<stop stop-color="#A71100"/>
<stop offset="1" stop-color="#B53303"/>
</linearGradient>
<linearGradient id="paint3_linear_484_13885" x1="24.1176" y1="19.7963" x2="24.1176" y2="1.24542" gradientUnits="userSpaceOnUse">
<stop offset="0.0503" stop-color="#FF3F00"/>
<stop offset="1" stop-color="#D92E03"/>
</linearGradient>
<linearGradient id="paint4_linear_484_13885" x1="19.0499" y1="19.8334" x2="19.0499" y2="0.000978784" gradientUnits="userSpaceOnUse">
<stop stop-color="#FF9600"/>
<stop offset="1" stop-color="#FFA900"/>
</linearGradient>
<linearGradient id="paint5_linear_484_13885" x1="23.1892" y1="19.8348" x2="23.1892" y2="0.104726" gradientUnits="userSpaceOnUse">
<stop stop-color="#FF7C00"/>
<stop offset="1" stop-color="#FF6800"/>
</linearGradient>
<linearGradient id="paint6_linear_484_13885" x1="16.9483" y1="10.891" x2="29.3102" y2="10.891" gradientUnits="userSpaceOnUse">
<stop stop-color="#FF7A00"/>
<stop offset="1" stop-color="#FF6800"/>
</linearGradient>
<linearGradient id="paint7_linear_484_13885" x1="23.1293" y1="9.94451" x2="23.1293" y2="9.57547" gradientUnits="userSpaceOnUse">
<stop stop-color="#FF9600"/>
<stop offset="1" stop-color="#FFA900"/>
</linearGradient>
<linearGradient id="paint8_linear_484_13885" x1="4.20474" y1="19.7974" x2="4.20474" y2="1.24486" gradientUnits="userSpaceOnUse">
<stop stop-color="#FF9600"/>
<stop offset="1" stop-color="#FFA900"/>
</linearGradient>
<linearGradient id="paint9_linear_484_13885" x1="7.18587" y1="19.7973" x2="7.18587" y2="1.16526" gradientUnits="userSpaceOnUse">
<stop stop-color="#FF6400"/>
<stop offset="1" stop-color="#FF6800"/>
</linearGradient>
<linearGradient id="paint10_linear_484_13885" x1="8.38373" y1="11.9152" x2="8.38373" y2="9.04701" gradientUnits="userSpaceOnUse">
<stop stop-color="#FF9600"/>
<stop offset="1" stop-color="#FFA900"/>
</linearGradient>
<linearGradient id="paint11_linear_484_13885" x1="17.9664" y1="18.7124" x2="27.5052" y2="18.7124" gradientUnits="userSpaceOnUse">
<stop stop-color="#FF7A00"/>
<stop offset="1" stop-color="#FF6800"/>
</linearGradient>
<linearGradient id="paint12_linear_484_13885" x1="9.89598" y1="19.8334" x2="9.89598" y2="17.8904" gradientUnits="userSpaceOnUse">
<stop stop-color="#FF9600"/>
<stop offset="1" stop-color="#FFA900"/>
</linearGradient>
<linearGradient id="paint13_linear_484_13885" x1="9.74474" y1="17.9427" x2="9.74474" y2="17.0698" gradientUnits="userSpaceOnUse">
<stop stop-color="#FFDE00"/>
<stop offset="1" stop-color="#FFE834"/>
</linearGradient>
<linearGradient id="paint14_linear_484_13885" x1="8.33828" y1="9.68768" x2="8.33828" y2="8.99565" gradientUnits="userSpaceOnUse">
<stop stop-color="#FFDE00"/>
<stop offset="1" stop-color="#FFE834"/>
</linearGradient>
</defs>
</svg>
