<svg width="20" height="20" viewBox="0 0 20 20" fill="none" xmlns="http://www.w3.org/2000/svg">
<path d="M6.5 8.33333C6.5 8.88562 6.94771 9.33333 7.5 9.33333C8.05228 9.33333 8.5 8.88562 8.5 8.33333H6.5ZM10 10.8333L10 9.83333C9.73478 9.83333 9.48043 9.93869 9.29289 10.1262C9.10536 10.3138 9 10.5681 9 10.8333H10ZM9 11.6667C9 12.219 9.44771 12.6667 10 12.6667C10.5523 12.6667 11 12.219 11 11.6667H9ZM8.5 8.33333C8.5 8.03666 8.58797 7.74665 8.7528 7.49998L7.08986 6.38884C6.70527 6.96441 6.5 7.6411 6.5 8.33333H8.5ZM8.7528 7.49998C8.91762 7.2533 9.15189 7.06105 9.42597 6.94752L8.66061 5.09976C8.02107 5.36466 7.47444 5.81327 7.08986 6.38884L8.7528 7.49998ZM9.42597 6.94752C9.70006 6.83398 10.0017 6.80428 10.2926 6.86216L10.6828 4.90059C10.0039 4.76554 9.30015 4.83485 8.66061 5.09976L9.42597 6.94752ZM10.2926 6.86216C10.5836 6.92003 10.8509 7.0629 11.0607 7.27267L12.4749 5.85846C11.9854 5.36898 11.3618 5.03563 10.6828 4.90059L10.2926 6.86216ZM11.0607 7.27267C11.2704 7.48245 11.4133 7.74973 11.4712 8.0407L13.4327 7.65052C13.2977 6.97158 12.9644 6.34794 12.4749 5.85846L11.0607 7.27267ZM11.4712 8.0407C11.5291 8.33167 11.4994 8.63327 11.3858 8.90736L13.2336 9.67273C13.4985 9.03319 13.5678 8.32945 13.4327 7.65052L11.4712 8.0407ZM11.3858 8.90736C11.2723 9.18145 11.08 9.41572 10.8334 9.58054L11.9445 11.2435C12.5201 10.8589 12.9687 10.3123 13.2336 9.67273L11.3858 8.90736ZM10.8334 9.58054C10.5867 9.74536 10.2967 9.83333 10 9.83333L10 11.8333C10.6922 11.8333 11.3689 11.6281 11.9445 11.2435L10.8334 9.58054ZM9 10.8333V11.6667H11V10.8333H9ZM16.5 10C16.5 13.5899 13.5899 16.5 10 16.5V18.5C14.6944 18.5 18.5 14.6944 18.5 10H16.5ZM10 16.5C6.41015 16.5 3.5 13.5899 3.5 10H1.5C1.5 14.6944 5.30558 18.5 10 18.5V16.5ZM3.5 10C3.5 6.41015 6.41015 3.5 10 3.5V1.5C5.30558 1.5 1.5 5.30558 1.5 10H3.5ZM10 3.5C13.5899 3.5 16.5 6.41015 16.5 10H18.5C18.5 5.30558 14.6944 1.5 10 1.5V3.5Z" fill="#FFEDC6"/>
<circle cx="10.0003" cy="14.1666" r="0.833333" fill="#FFEDC6"/>
</svg>
