<svg width="40" height="40" viewBox="0 0 40 40" fill="none" xmlns="http://www.w3.org/2000/svg">
<path fill-rule="evenodd" clip-rule="evenodd" d="M39 20C39 30.4934 30.4934 39 20 39C14.8586 39 10.1942 36.9579 6.77367 33.6405L33.6405 6.77366C36.9579 10.1942 39 14.8586 39 20ZM6.07422 32.9258L32.9258 6.07422C29.535 2.92544 24.9923 1 20 1C9.50659 1 1 9.50659 1 20C1 24.9923 2.92544 29.535 6.07422 32.9258ZM40 20C40 31.0457 31.0457 40 20 40C8.9543 40 0 31.0457 0 20C0 8.9543 8.9543 0 20 0C31.0457 0 40 8.9543 40 20Z" fill="#A9001D"/>
</svg>
